<svg width="265" height="34" viewBox="0 0 265 34" fill="none" xmlns="http://www.w3.org/2000/svg">
<path fill-rule="evenodd" clip-rule="evenodd" d="M13.8648 0.989513L9.24245 8.99399C12.3242 14.331 15.406 19.6688 18.4863 25.0058H9.24245L4.62157 16.9999L0 25.0058L4.62157 33.0103H13.8648L18.4863 25.0058L23.1079 33.0103L27.7309 25.0058C23.1079 16.9999 18.4863 8.99541 13.8648 0.989513Z" fill="white"/>
<path d="M40.7078 26.9995L46.9438 8.92243H51.2143L57.4503 26.9995H53.8592L52.5732 23.1172H45.585L44.2747 26.9995H40.7078ZM46.5313 20.2054H51.6268L48.618 11.2033H49.5401L46.5313 20.2054ZM62.4401 26.9995L57.2475 13.7996H60.7173L64.4783 24.1848H63.1923L66.9776 13.7996H70.4474L65.2548 26.9995H62.4401ZM75.734 27.2907C74.812 27.2907 74.0112 27.137 73.3318 26.8297C72.6524 26.5223 72.1267 26.0855 71.7546 25.5194C71.3826 24.937 71.1966 24.2657 71.1966 23.5054C71.1966 22.7775 71.3583 22.1304 71.6819 21.5643C72.0054 20.9819 72.5068 20.4966 73.1863 20.1084C73.8657 19.7202 74.723 19.4452 75.7583 19.2834L80.0774 18.5797V21.0062L76.3649 21.637C75.734 21.7503 75.2649 21.9525 74.9576 22.2437C74.6502 22.5348 74.4965 22.915 74.4965 23.3841C74.4965 23.837 74.6664 24.201 75.0061 24.476C75.362 24.7348 75.7987 24.8642 76.3164 24.8642C76.9796 24.8642 77.562 24.7267 78.0634 24.4517C78.5811 24.1606 78.9774 23.7642 79.2524 23.2628C79.5436 22.7613 79.6891 22.2113 79.6891 21.6128V18.2158C79.6891 17.6496 79.4627 17.1805 79.0097 16.8084C78.573 16.4202 77.9906 16.2261 77.2627 16.2261C76.5833 16.2261 75.9767 16.4121 75.4429 16.7841C74.9252 17.14 74.5451 17.6172 74.3024 18.2158L71.7061 16.954C71.9649 16.2584 72.3693 15.6599 72.9193 15.1584C73.4855 14.6408 74.1487 14.2364 74.909 13.9452C75.6693 13.654 76.4943 13.5084 77.384 13.5084C78.4678 13.5084 79.4222 13.7106 80.2472 14.115C81.0722 14.5033 81.7112 15.0533 82.1641 15.765C82.6332 16.4606 82.8678 17.2775 82.8678 18.2158V26.9995H79.859V24.7429L80.5384 24.6944C80.1987 25.2606 79.7943 25.7378 79.3252 26.126C78.8561 26.498 78.3222 26.7892 77.7237 26.9995C77.1252 27.1936 76.462 27.2907 75.734 27.2907ZM91.9446 27.2907C90.6667 27.2907 89.5263 26.9914 88.5233 26.3929C87.5204 25.7782 86.7278 24.9451 86.1454 23.8937C85.5631 22.8422 85.2719 21.6775 85.2719 20.3996C85.2719 19.1055 85.5631 17.9408 86.1454 16.9055C86.7278 15.8702 87.5204 15.0452 88.5233 14.4305C89.5424 13.8158 90.6748 13.5084 91.9204 13.5084C92.9233 13.5084 93.813 13.7106 94.5895 14.115C95.3821 14.5033 96.0049 15.0533 96.4578 15.765L95.9725 16.4202V8.63126H99.1512V26.9995H96.1424V24.4517L96.4821 25.0826C96.0292 25.7944 95.3983 26.3444 94.5895 26.7326C93.7806 27.1047 92.899 27.2907 91.9446 27.2907ZM92.2843 24.3789C93.0123 24.3789 93.6512 24.2091 94.2012 23.8694C94.7512 23.5297 95.1799 23.0606 95.4873 22.462C95.8108 21.8635 95.9725 21.176 95.9725 20.3996C95.9725 19.6393 95.8108 18.9599 95.4873 18.3613C95.1799 17.7466 94.7512 17.2694 94.2012 16.9297C93.6512 16.59 93.0123 16.4202 92.2843 16.4202C91.5726 16.4202 90.9336 16.5981 90.3674 16.954C89.8013 17.2937 89.3564 17.7628 89.0329 18.3613C88.7255 18.9437 88.5719 19.6231 88.5719 20.3996C88.5719 21.176 88.7255 21.8635 89.0329 22.462C89.3564 23.0606 89.8013 23.5297 90.3674 23.8694C90.9336 24.2091 91.5726 24.3789 92.2843 24.3789ZM106.112 27.2907C105.19 27.2907 104.389 27.137 103.71 26.8297C103.03 26.5223 102.505 26.0855 102.133 25.5194C101.761 24.937 101.575 24.2657 101.575 23.5054C101.575 22.7775 101.736 22.1304 102.06 21.5643C102.383 20.9819 102.885 20.4966 103.564 20.1084C104.244 19.7202 105.101 19.4452 106.136 19.2834L110.455 18.5797V21.0062L106.743 21.637C106.112 21.7503 105.643 21.9525 105.336 22.2437C105.028 22.5348 104.875 22.915 104.875 23.3841C104.875 23.837 105.044 24.201 105.384 24.476C105.74 24.7348 106.177 24.8642 106.694 24.8642C107.358 24.8642 107.94 24.7267 108.441 24.4517C108.959 24.1606 109.355 23.7642 109.63 23.2628C109.922 22.7613 110.067 22.2113 110.067 21.6128V18.2158C110.067 17.6496 109.841 17.1805 109.388 16.8084C108.951 16.4202 108.369 16.2261 107.641 16.2261C106.961 16.2261 106.355 16.4121 105.821 16.7841C105.303 17.14 104.923 17.6172 104.68 18.2158L102.084 16.954C102.343 16.2584 102.747 15.6599 103.297 15.1584C103.864 14.6408 104.527 14.2364 105.287 13.9452C106.047 13.654 106.872 13.5084 107.762 13.5084C108.846 13.5084 109.8 13.7106 110.625 14.115C111.45 14.5033 112.089 15.0533 112.542 15.765C113.011 16.4606 113.246 17.2775 113.246 18.2158V26.9995H110.237V24.7429L110.916 24.6944C110.577 25.2606 110.172 25.7378 109.703 26.126C109.234 26.498 108.7 26.7892 108.102 26.9995C107.503 27.1936 106.84 27.2907 106.112 27.2907ZM129.256 27.2907C127.962 27.2907 126.765 27.0561 125.665 26.587C124.581 26.1179 123.627 25.4628 122.802 24.6216C121.993 23.7804 121.362 22.7937 120.909 21.6613C120.456 20.529 120.229 19.2915 120.229 17.9488C120.229 16.6062 120.448 15.3687 120.885 14.2364C121.338 13.0878 121.968 12.1011 122.777 11.2761C123.602 10.4349 124.565 9.78787 125.665 9.33493C126.765 8.86582 127.962 8.63126 129.256 8.63126C130.55 8.63126 131.707 8.84964 132.726 9.2864C133.761 9.72316 134.635 10.3055 135.346 11.0334C136.058 11.7452 136.568 12.5298 136.875 13.3871L133.915 14.7702C133.575 13.8643 133.001 13.1202 132.192 12.5379C131.383 11.9393 130.404 11.6401 129.256 11.6401C128.124 11.6401 127.121 11.907 126.247 12.4408C125.39 12.9746 124.718 13.7106 124.233 14.6489C123.764 15.5871 123.529 16.6871 123.529 17.9488C123.529 19.2106 123.764 20.3187 124.233 21.2731C124.718 22.2113 125.39 22.9473 126.247 23.4812C127.121 24.015 128.124 24.2819 129.256 24.2819C130.404 24.2819 131.383 23.9907 132.192 23.4084C133.001 22.8098 133.575 22.0576 133.915 21.1518L136.875 22.5348C136.568 23.3922 136.058 24.1848 135.346 24.9128C134.635 25.6245 133.761 26.1988 132.726 26.6355C131.707 27.0723 130.55 27.2907 129.256 27.2907ZM145.505 27.2907C144.21 27.2907 143.03 26.9914 141.962 26.3929C140.911 25.7944 140.069 24.9775 139.438 23.9422C138.824 22.9069 138.516 21.726 138.516 20.3996C138.516 19.0731 138.824 17.8922 139.438 16.8569C140.069 15.8217 140.911 15.0047 141.962 14.4062C143.013 13.8077 144.194 13.5084 145.505 13.5084C146.799 13.5084 147.971 13.8077 149.023 14.4062C150.074 15.0047 150.908 15.8217 151.522 16.8569C152.153 17.876 152.469 19.0569 152.469 20.3996C152.469 21.726 152.153 22.9069 151.522 23.9422C150.891 24.9775 150.05 25.7944 148.999 26.3929C147.947 26.9914 146.783 27.2907 145.505 27.2907ZM145.505 24.3789C146.216 24.3789 146.839 24.2091 147.373 23.8694C147.923 23.5297 148.352 23.0606 148.659 22.462C148.983 21.8473 149.144 21.1598 149.144 20.3996C149.144 19.6231 148.983 18.9437 148.659 18.3613C148.352 17.7628 147.923 17.2937 147.373 16.954C146.839 16.5981 146.216 16.4202 145.505 16.4202C144.777 16.4202 144.138 16.5981 143.588 16.954C143.038 17.2937 142.601 17.7628 142.277 18.3613C141.97 18.9437 141.816 19.6231 141.816 20.3996C141.816 21.1598 141.97 21.8473 142.277 22.462C142.601 23.0606 143.038 23.5297 143.588 23.8694C144.138 24.2091 144.777 24.3789 145.505 24.3789ZM154.879 26.9995V13.7996H157.864V16.7356L157.621 16.2989C157.928 15.3121 158.406 14.6246 159.053 14.2364C159.716 13.8481 160.508 13.654 161.43 13.654H162.207V16.4687H161.067C160.161 16.4687 159.433 16.7518 158.883 17.318C158.333 17.868 158.058 18.6444 158.058 19.6474V26.9995H154.879ZM163.955 31.8524V13.7996H166.939V16.4202L166.648 15.765C167.101 15.0533 167.716 14.5033 168.492 14.115C169.268 13.7106 170.166 13.5084 171.185 13.5084C172.431 13.5084 173.555 13.8158 174.558 14.4305C175.561 15.0452 176.354 15.8702 176.936 16.9055C177.535 17.9408 177.834 19.1055 177.834 20.3996C177.834 21.6775 177.543 22.8422 176.96 23.8937C176.378 24.9451 175.585 25.7782 174.582 26.3929C173.579 26.9914 172.439 27.2907 171.161 27.2907C170.207 27.2907 169.325 27.1047 168.516 26.7326C167.724 26.3444 167.093 25.7944 166.624 25.0826L167.133 24.4517V31.8524H163.955ZM170.797 24.3789C171.525 24.3789 172.172 24.2091 172.738 23.8694C173.304 23.5297 173.741 23.0606 174.049 22.462C174.372 21.8635 174.534 21.176 174.534 20.3996C174.534 19.6231 174.372 18.9437 174.049 18.3613C173.741 17.7628 173.304 17.2937 172.738 16.954C172.172 16.5981 171.525 16.4202 170.797 16.4202C170.102 16.4202 169.471 16.59 168.905 16.9297C168.355 17.2694 167.918 17.7466 167.594 18.3613C167.287 18.9599 167.133 19.6393 167.133 20.3996C167.133 21.176 167.287 21.8635 167.594 22.462C167.918 23.0606 168.355 23.5297 168.905 23.8694C169.471 24.2091 170.102 24.3789 170.797 24.3789ZM186.712 27.2907C185.418 27.2907 184.237 26.9914 183.169 26.3929C182.118 25.7944 181.276 24.9775 180.646 23.9422C180.031 22.9069 179.723 21.726 179.723 20.3996C179.723 19.0731 180.031 17.8922 180.646 16.8569C181.276 15.8217 182.118 15.0047 183.169 14.4062C184.221 13.8077 185.401 13.5084 186.712 13.5084C188.006 13.5084 189.179 13.8077 190.23 14.4062C191.281 15.0047 192.115 15.8217 192.729 16.8569C193.36 17.876 193.676 19.0569 193.676 20.3996C193.676 21.726 193.36 22.9069 192.729 23.9422C192.098 24.9775 191.257 25.7944 190.206 26.3929C189.154 26.9914 187.99 27.2907 186.712 27.2907ZM186.712 24.3789C187.423 24.3789 188.046 24.2091 188.58 23.8694C189.13 23.5297 189.559 23.0606 189.866 22.462C190.19 21.8473 190.351 21.1598 190.351 20.3996C190.351 19.6231 190.19 18.9437 189.866 18.3613C189.559 17.7628 189.13 17.2937 188.58 16.954C188.046 16.5981 187.423 16.4202 186.712 16.4202C185.984 16.4202 185.345 16.5981 184.795 16.954C184.245 17.2937 183.808 17.7628 183.484 18.3613C183.177 18.9437 183.023 19.6231 183.023 20.3996C183.023 21.1598 183.177 21.8473 183.484 22.462C183.808 23.0606 184.245 23.5297 184.795 23.8694C185.345 24.2091 185.984 24.3789 186.712 24.3789ZM196.086 26.9995V13.7996H199.071V16.7356L198.828 16.2989C199.135 15.3121 199.613 14.6246 200.26 14.2364C200.923 13.8481 201.715 13.654 202.638 13.654H203.414V16.4687H202.274C201.368 16.4687 200.64 16.7518 200.09 17.318C199.54 17.868 199.265 18.6444 199.265 19.6474V26.9995H196.086ZM209.165 27.2907C208.243 27.2907 207.442 27.137 206.763 26.8297C206.084 26.5223 205.558 26.0855 205.186 25.5194C204.814 24.937 204.628 24.2657 204.628 23.5054C204.628 22.7775 204.79 22.1304 205.113 21.5643C205.437 20.9819 205.938 20.4966 206.617 20.1084C207.297 19.7202 208.154 19.4452 209.19 19.2834L213.509 18.5797V21.0062L209.796 21.637C209.165 21.7503 208.696 21.9525 208.389 22.2437C208.081 22.5348 207.928 22.915 207.928 23.3841C207.928 23.837 208.098 24.201 208.437 24.476C208.793 24.7348 209.23 24.8642 209.748 24.8642C210.411 24.8642 210.993 24.7267 211.495 24.4517C212.012 24.1606 212.409 23.7642 212.684 23.2628C212.975 22.7613 213.12 22.2113 213.12 21.6128V18.2158C213.12 17.6496 212.894 17.1805 212.441 16.8084C212.004 16.4202 211.422 16.2261 210.694 16.2261C210.015 16.2261 209.408 16.4121 208.874 16.7841C208.356 17.14 207.976 17.6172 207.734 18.2158L205.137 16.954C205.396 16.2584 205.801 15.6599 206.351 15.1584C206.917 14.6408 207.58 14.2364 208.34 13.9452C209.101 13.654 209.926 13.5084 210.815 13.5084C211.899 13.5084 212.853 13.7106 213.678 14.115C214.503 14.5033 215.142 15.0533 215.595 15.765C216.064 16.4606 216.299 17.2775 216.299 18.2158V26.9995H213.29V24.7429L213.97 24.6944C213.63 25.2606 213.226 25.7378 212.756 26.126C212.287 26.498 211.753 26.7892 211.155 26.9995C210.556 27.1936 209.893 27.2907 209.165 27.2907ZM225.018 27.1451C223.529 27.1451 222.373 26.7407 221.548 25.9319C220.739 25.1069 220.335 23.9503 220.335 22.462V16.6386H218.054V13.7996H218.296C218.943 13.7996 219.445 13.6298 219.801 13.2901C220.157 12.9503 220.335 12.457 220.335 11.8099V10.7908H223.513V13.7996H226.546V16.6386H223.513V22.2922C223.513 22.729 223.586 23.101 223.732 23.4084C223.893 23.7157 224.136 23.9503 224.459 24.112C224.799 24.2738 225.228 24.3547 225.746 24.3547C225.859 24.3547 225.988 24.3466 226.134 24.3304C226.296 24.3142 226.449 24.2981 226.595 24.2819V26.9995C226.368 27.0319 226.109 27.0642 225.818 27.0966C225.527 27.1289 225.26 27.1451 225.018 27.1451ZM229.023 26.9995V13.7996H232.202V26.9995H229.023ZM229.023 12.3195V8.92243H232.202V12.3195H229.023ZM241.591 27.2907C240.297 27.2907 239.116 26.9914 238.049 26.3929C236.997 25.7944 236.156 24.9775 235.525 23.9422C234.91 22.9069 234.603 21.726 234.603 20.3996C234.603 19.0731 234.91 17.8922 235.525 16.8569C236.156 15.8217 236.997 15.0047 238.049 14.4062C239.1 13.8077 240.281 13.5084 241.591 13.5084C242.885 13.5084 244.058 13.8077 245.11 14.4062C246.161 15.0047 246.994 15.8217 247.609 16.8569C248.24 17.876 248.555 19.0569 248.555 20.3996C248.555 21.726 248.24 22.9069 247.609 23.9422C246.978 24.9775 246.137 25.7944 245.085 26.3929C244.034 26.9914 242.869 27.2907 241.591 27.2907ZM241.591 24.3789C242.303 24.3789 242.926 24.2091 243.46 23.8694C244.01 23.5297 244.438 23.0606 244.746 22.462C245.069 21.8473 245.231 21.1598 245.231 20.3996C245.231 19.6231 245.069 18.9437 244.746 18.3613C244.438 17.7628 244.01 17.2937 243.46 16.954C242.926 16.5981 242.303 16.4202 241.591 16.4202C240.863 16.4202 240.224 16.5981 239.674 16.954C239.124 17.2937 238.688 17.7628 238.364 18.3613C238.057 18.9437 237.903 19.6231 237.903 20.3996C237.903 21.1598 238.057 21.8473 238.364 22.462C238.688 23.0606 239.124 23.5297 239.674 23.8694C240.224 24.2091 240.863 24.3789 241.591 24.3789ZM250.966 26.9995V13.7996H253.95V16.3959L253.708 15.9349C254.015 15.1422 254.516 14.5437 255.212 14.1393C255.924 13.7187 256.749 13.5084 257.687 13.5084C258.658 13.5084 259.515 13.7187 260.259 14.1393C261.019 14.5599 261.61 15.1503 262.03 15.9106C262.451 16.6547 262.661 17.5202 262.661 18.5069V26.9995H259.483V19.2591C259.483 18.6768 259.369 18.1753 259.143 17.7547C258.916 17.3341 258.601 17.0106 258.196 16.7841C257.808 16.5415 257.347 16.4202 256.813 16.4202C256.296 16.4202 255.835 16.5415 255.43 16.7841C255.026 17.0106 254.71 17.3341 254.484 17.7547C254.258 18.1753 254.144 18.6768 254.144 19.2591V26.9995H250.966Z" fill="white"/>
</svg>
