<svg width="1920" height="954" fill="none" xmlns="http://www.w3.org/2000/svg"><g clip-path="url(#prefix__clip0_75_23031)" fill="rgba(15,35,133,1)"><path d="M1321.57 538C1357.08 287.516 1273.7 89.91 1127-.418L1374.18-6c65.77 100.68-15.89 431.512-52.61 544zM312 955c432.242 0 746.77-180.667 850-271-90.34 157.09-176.766 246.121-208.688 271H312z" fill="rgba(66,90,158,1)" fill-opacity=".25"/><path d="M1344.5 427c0-252.4-212.67-390.833-319-428.5H1373c70 82.4 10.17 320-28.5 428.5z" fill="rgba(66,90,158,1)" fill-opacity=".1"/><path fill-rule="evenodd" clip-rule="evenodd" d="M839.644 954C1138.37 793.549 1337 508.902 1337 184.5c0-63.218-7.54-124.926-21.9-184.5H1920v954H839.644zm0 0C676.842 1041.44 484.311 1092 278 1092c-584.87 0-1059-406.302-1059-907.5S-306.87-723 278-723c511.098 0 937.63 310.269 1037.1 723H0v954h839.644z" fill="rgba(66,90,158,1)" fill-opacity=".5"/><path fill-rule="evenodd" clip-rule="evenodd" d="M1011.55 954C1221.42 793.95 1353 564.007 1353 308.5c0-108.584-23.76-212.552-67.2-308.5H1920v954h-908.45zm0 0c-187.291 142.83-436.933 230-711.05 230C-280.78 1184-752 792.025-752 308.5S-280.78-567 300.5-567c450.743 0 835.31 235.692 985.3 567H0v954h1011.55z"/></g><defs><clipPath id="prefix__clip0_75_23031"><path fill="#fff" d="M0 0h1920v954H0z"/></clipPath></defs></svg>