<svg width="1920" height="954" fill="none" xmlns="http://www.w3.org/2000/svg"><g clip-path="url(#prefix__clip0_58_745)" fill="rgba(15,35,133,1)"><path d="M250.018-408.977c69.019-18.494 142.66 1.238 193.185 51.763L718.31-82.107c50.525 50.525 70.258 124.167 51.764 193.185L669.378 486.881c-18.493 69.019-72.403 122.928-141.421 141.422L152.154 728.999c-69.019 18.493-142.66-1.239-193.186-51.764l-275.106-275.107c-50.525-50.525-70.258-124.167-51.764-193.185l100.696-375.803c18.493-69.018 72.403-122.928 141.421-141.421l375.803-100.696zM1646.73 1264.15c33.13 8.88 68.48-.59 92.73-24.84l147.89-147.89a96.031 96.031 0 0024.85-92.732l-54.13-202.022a96.012 96.012 0 00-67.89-67.882l-202.02-54.132c-33.13-8.877-68.47.595-92.73 24.847l-147.89 147.89a95.994 95.994 0 00-24.84 92.729l54.13 202.022a95.967 95.967 0 0067.88 67.88l202.02 54.13zM1572.48 252.659a23.996 23.996 0 0023.18 6.211l50.5-13.533a23.97 23.97 0 0016.97-16.97l13.54-50.506a24.004 24.004 0 00-6.21-23.182l-36.98-36.973a23.993 23.993 0 00-23.18-6.211l-50.5 13.533a24 24 0 00-16.98 16.97l-13.53 50.506a24.004 24.004 0 006.21 23.182l36.98 36.973z"/></g><defs><clipPath id="prefix__clip0_58_745"><path fill="#fff" d="M0 0h1920v954H0z"/></clipPath></defs></svg>